<?xml version="1.0" standalone="no"?>
<!DOCTYPE svg PUBLIC "-//W3C//DTD SVG 20010904//EN"
 "http://www.w3.org/TR/2001/REC-SVG-20010904/DTD/svg10.dtd">
<svg version="1.0" xmlns="http://www.w3.org/2000/svg"
 width="407.000000pt" height="161.000000pt" viewBox="0 0 407.000000 161.000000"
 preserveAspectRatio="xMidYMid meet">

<g transform="translate(0.000000,161.000000) scale(0.100000,-0.100000)"
fill="#fff" stroke="none">
<path d="M608 1600 c-118 -20 -229 -66 -338 -140 -115 -78 -276 -281 -253
-319 10 -16 397 -201 420 -201 11 0 29 38 21 44 -1 1 -84 40 -183 85 -99 46
-184 87 -189 91 -13 13 66 120 147 197 84 79 211 150 327 180 88 23 272 23
359 -1 268 -72 468 -269 543 -533 29 -101 31 -285 4 -383 -70 -263 -283 -474
-544 -541 -93 -24 -268 -26 -360 -4 -74 18 -191 70 -254 113 -58 40 -151 132
-184 182 -30 44 -32 46 -59 27 -17 -13 -17 -16 12 -58 44 -63 168 -179 240
-222 263 -160 603 -154 864 14 82 54 196 171 239 247 19 35 40 70 46 79 10 15
27 14 205 -10 220 -31 366 -34 454 -12 149 39 236 150 222 283 -13 121 -89
174 -317 218 -192 37 -230 63 -230 156 0 33 6 47 38 78 76 77 242 78 395 2
l78 -39 -3 71 -3 71 -80 23 c-220 64 -424 25 -509 -96 -53 -75 -48 -203 11
-273 41 -49 113 -78 268 -108 164 -33 203 -51 223 -103 31 -81 -16 -155 -116
-184 -64 -19 -173 -15 -360 12 -81 11 -111 20 -124 35 -32 37 -69 170 -78 279
-18 207 -88 362 -232 507 -181 185 -451 275 -700 233z"/>
<path d="M760 1427 c0 -26 16 -37 57 -37 13 0 58 -11 100 -25 228 -77 383
-273 408 -517 7 -64 9 -68 33 -68 l25 0 -6 80 c-23 298 -262 546 -567 586 -49
6 -50 6 -50 -19z"/>
<path d="M3520 1323 c-100 -17 -176 -58 -243 -132 -144 -161 -138 -491 12
-653 116 -127 335 -153 552 -67 l59 24 0 67 c0 38 -3 68 -6 68 -3 0 -20 -11
-37 -24 -148 -111 -357 -113 -466 -5 -125 124 -125 423 0 548 55 56 111 76
209 76 102 0 165 -20 244 -75 l56 -39 0 73 0 74 -72 26 c-121 43 -214 55 -308
39z"/>
<path d="M2672 1283 c-5 -15 -75 -208 -156 -429 -80 -220 -146 -406 -146 -413
0 -8 17 -11 56 -9 l56 3 43 120 42 120 191 3 190 2 16 -42 c9 -24 28 -79 44
-123 l28 -80 63 -3 c57 -3 62 -1 57 15 -3 10 -75 207 -159 438 l-154 420 -80
3 c-80 3 -81 3 -91 -25z m167 -296 c39 -109 71 -200 71 -202 0 -8 -300 -5
-300 3 -1 21 146 410 152 404 4 -4 38 -96 77 -205z"/>
<path d="M650 1144 c-30 -8 -74 -26 -98 -40 -44 -26 -44 -26 -25 -46 19 -19
20 -19 73 9 144 75 320 17 398 -131 22 -43 27 -64 27 -131 0 -67 -5 -88 -27
-130 -49 -93 -137 -153 -238 -162 -111 -10 -210 40 -281 143 -25 37 -34 44
-52 38 -79 -24 -427 -157 -427 -163 0 -4 6 -15 13 -24 11 -16 27 -12 209 54
l197 72 58 -60 c79 -81 135 -107 243 -111 68 -3 96 1 142 18 79 29 150 96 190
178 29 59 33 76 33 147 -1 66 -6 91 -29 141 -70 155 -247 241 -406 198z"/>
<path d="M632 999 c-134 -68 -162 -239 -56 -345 50 -51 98 -68 174 -62 202 15
269 283 98 395 -57 38 -154 44 -216 12z"/>
<path d="M1450 320 c0 -20 7 -20 1275 -20 1268 0 1275 0 1275 20 0 20 -7 20
-1275 20 -1268 0 -1275 0 -1275 -20z"/>
<path d="M1456 188 c-21 -29 -20 -51 2 -71 40 -36 112 -10 112 40 0 50 -85 73
-114 31z m83 -17 c14 -26 -8 -54 -39 -49 -25 3 -36 27 -26 54 8 20 53 17 65
-5z"/>
<path d="M1982 193 c-14 -27 -4 -42 34 -49 43 -8 45 -26 2 -24 -48 3 -55 1
-38 -10 22 -14 76 -12 89 4 18 21 2 45 -35 52 -46 8 -44 28 2 21 25 -4 34 -2
31 6 -2 7 -20 13 -40 15 -26 2 -38 -2 -45 -15z"/>
<path d="M2732 158 c-22 -52 -21 -78 2 -45 16 21 55 22 62 2 4 -8 13 -15 21
-15 8 0 13 4 11 8 -1 4 -12 29 -23 55 -11 26 -27 47 -35 47 -8 0 -25 -23 -38
-52z m48 -3 c0 -8 -7 -15 -15 -15 -9 0 -12 6 -9 15 4 8 10 15 15 15 5 0 9 -7
9 -15z"/>
<path d="M2862 198 c-26 -26 0 -58 47 -58 12 0 21 -5 21 -11 0 -8 -14 -10 -41
-6 -28 4 -39 2 -36 -6 2 -7 23 -12 48 -12 35 0 44 4 47 19 5 23 -23 46 -56 46
-14 0 -21 4 -17 11 4 6 19 10 33 9 41 -3 48 -1 32 10 -21 13 -64 12 -78 -2z"/>
<path d="M2986 194 c-19 -18 -21 -65 -4 -82 19 -19 108 -13 108 7 0 4 -19 7
-41 7 -49 -1 -72 22 -49 49 10 13 24 16 52 12 41 -6 52 7 16 17 -38 10 -66 7
-82 -10z"/>
<path d="M3128 199 c-21 -12 -24 -69 -6 -87 16 -16 80 -16 96 0 17 17 15 64
-4 82 -17 18 -60 20 -86 5z m72 -24 c6 -8 9 -23 5 -35 -5 -17 -13 -20 -38 -18
-21 2 -33 9 -35 21 -8 39 42 63 68 32z"/>
<path d="M3258 155 l4 -55 49 0 c27 0 49 5 49 10 0 6 -18 10 -40 10 l-40 0 0
45 c0 29 -4 45 -12 45 -9 0 -12 -16 -10 -55z"/>
<path d="M3427 192 c-47 -52 16 -113 87 -86 29 11 16 21 -26 20 -41 -1 -43 0
-43 29 0 29 2 30 43 29 42 -1 55 9 26 20 -30 12 -71 6 -87 -12z"/>
<path d="M1590 146 c0 -47 13 -62 23 -26 4 15 14 20 37 20 27 0 31 3 28 23 -2
18 -10 23 -45 25 l-43 3 0 -45z m70 14 c0 -5 -11 -10 -25 -10 -14 0 -25 5 -25
10 0 6 11 10 25 10 14 0 25 -4 25 -10z"/>
<path d="M1700 145 l0 -45 45 0 c25 0 45 3 45 8 0 4 -13 7 -30 7 -35 0 -41 17
-8 27 22 6 21 6 -4 7 -41 1 -34 21 7 21 19 0 35 5 35 10 0 6 -20 10 -45 10
l-45 0 0 -45z"/>
<path d="M1810 145 c0 -25 5 -45 10 -45 6 0 10 12 10 27 l0 27 28 -27 c40 -39
52 -35 52 18 0 25 -4 45 -10 45 -5 0 -10 -11 -10 -25 0 -14 -4 -25 -9 -25 -5
0 -18 11 -29 25 -29 37 -42 31 -42 -20z"/>
<path d="M2108 179 c-21 -12 -24 -49 -6 -67 20 -20 76 -15 88 7 14 27 13 37
-6 55 -18 18 -51 20 -76 5z m66 -24 c5 -14 -17 -45 -33 -45 -15 0 -33 30 -27
45 7 19 52 20 60 0z"/>
<path d="M2219 148 c6 -42 6 -43 46 -43 40 0 40 0 43 43 2 25 -1 42 -7 42 -6
0 -11 -15 -11 -34 0 -22 -6 -36 -16 -40 -24 -9 -34 2 -34 40 0 21 -5 34 -13
34 -10 0 -12 -11 -8 -42z"/>
<path d="M2330 145 c0 -33 4 -45 15 -45 8 0 15 9 15 20 0 11 4 20 10 20 5 0
14 -9 20 -20 6 -11 18 -20 27 -20 16 0 16 1 1 17 -15 15 -15 18 -2 27 29 21 6
46 -42 46 l-44 0 0 -45z m70 15 c0 -5 -9 -10 -20 -10 -11 0 -20 5 -20 10 0 6
9 10 20 10 11 0 20 -4 20 -10z"/>
<path d="M2448 164 c-17 -37 0 -59 47 -59 23 0 40 5 43 13 3 11 0 12 -17 3
-21 -12 -61 0 -61 17 1 22 20 34 49 30 32 -5 42 6 15 16 -35 14 -64 6 -76 -20z"/>
<path d="M2560 145 l0 -45 45 0 c25 0 45 4 45 8 0 5 -13 7 -30 4 -23 -3 -30
-1 -30 13 0 12 6 16 20 12 11 -3 20 -1 20 4 0 5 -9 9 -20 9 -11 0 -20 5 -20
10 0 6 14 10 30 10 17 0 30 5 30 10 0 6 -20 10 -45 10 l-45 0 0 -45z"/>
<path d="M3558 145 c2 -25 8 -45 13 -45 5 0 9 20 9 45 0 29 -4 45 -13 45 -8 0
-11 -14 -9 -45z"/>
<path d="M3605 145 c0 -29 4 -45 13 -45 6 0 12 9 12 20 0 11 4 20 10 20 5 0
14 -9 20 -20 6 -11 18 -20 27 -20 13 0 13 3 3 15 -10 12 -10 18 0 30 22 26 4
45 -42 45 l-43 0 0 -45z m70 15 c-3 -5 -15 -10 -26 -10 -10 0 -19 5 -19 10 0
6 12 10 26 10 14 0 23 -4 19 -10z"/>
<path d="M3726 175 c-19 -20 -20 -35 -3 -59 15 -21 78 -19 85 2 3 11 0 12 -16
3 -29 -15 -52 -3 -52 26 0 23 3 25 35 21 22 -2 34 0 32 6 -6 18 -63 18 -81 1z"/>
<path d="M3838 145 l4 -45 39 0 c21 0 39 4 39 8 0 5 -13 7 -30 4 -29 -4 -30
-3 -30 37 0 26 -5 41 -13 41 -8 0 -11 -14 -9 -45z"/>
<path d="M3930 145 l0 -45 45 0 c25 0 45 4 45 8 0 5 -13 7 -30 4 -22 -3 -30 0
-30 11 0 9 10 18 23 20 l22 4 -22 2 c-34 2 -28 21 7 21 17 0 30 5 30 10 0 6
-20 10 -45 10 l-45 0 0 -45z"/>
</g>
</svg>
